<svg width="22" height="22" viewBox="0 0 22 22" fill="none" xmlns="http://www.w3.org/2000/svg">
<path d="M2.74984 12.3751L2.06234 11.0001H6.87484L6.32484 9.62508H1.83317L1.14567 8.25008H8.29567L7.74567 6.87508H1.01734L0.229004 5.50008H3.6665C3.6665 5.01385 3.85966 4.54754 4.20347 4.20372C4.54729 3.8599 5.01361 3.66675 5.49984 3.66675H16.4998V7.33341H19.2498L21.9998 11.0001V15.5834H20.1665C20.1665 16.3128 19.8768 17.0122 19.361 17.528C18.8453 18.0437 18.1458 18.3334 17.4165 18.3334C16.6872 18.3334 15.9877 18.0437 15.472 17.528C14.9562 17.0122 14.6665 16.3128 14.6665 15.5834H10.9998C10.9998 16.3128 10.7101 17.0122 10.1944 17.528C9.67866 18.0437 8.97918 18.3334 8.24984 18.3334C7.52049 18.3334 6.82102 18.0437 6.30529 17.528C5.78957 17.0122 5.49984 16.3128 5.49984 15.5834H3.6665V12.3751H2.74984ZM17.4165 16.9584C17.7812 16.9584 18.1309 16.8135 18.3888 16.5557C18.6466 16.2978 18.7915 15.9481 18.7915 15.5834C18.7915 15.2187 18.6466 14.869 18.3888 14.6111C18.1309 14.3533 17.7812 14.2084 17.4165 14.2084C17.0518 14.2084 16.7021 14.3533 16.4442 14.6111C16.1864 14.869 16.0415 15.2187 16.0415 15.5834C16.0415 15.9481 16.1864 16.2978 16.4442 16.5557C16.7021 16.8135 17.0518 16.9584 17.4165 16.9584ZM18.7915 8.70841H16.4998V11.0001H20.5882L18.7915 8.70841ZM8.24984 16.9584C8.61451 16.9584 8.96425 16.8135 9.22211 16.5557C9.47997 16.2978 9.62484 15.9481 9.62484 15.5834C9.62484 15.2187 9.47997 14.869 9.22211 14.6111C8.96425 14.3533 8.61451 14.2084 8.24984 14.2084C7.88516 14.2084 7.53543 14.3533 7.27757 14.6111C7.0197 14.869 6.87484 15.2187 6.87484 15.5834C6.87484 15.9481 7.0197 16.2978 7.27757 16.5557C7.53543 16.8135 7.88516 16.9584 8.24984 16.9584Z" fill="#040353"/>
</svg>
