<svg width="22" height="22" viewBox="0 0 22 22" fill="none" xmlns="http://www.w3.org/2000/svg">
<path d="M17.3248 6.61093C17.5228 6.61093 17.7032 6.68023 17.8451 6.79573C18.6916 7.50931 19.303 8.46173 19.5993 9.52842C19.8957 10.5951 19.8633 11.7264 19.5063 12.7744C19.1493 13.8223 18.4843 14.7382 17.5984 15.4021C16.7125 16.066 15.6468 16.4471 14.5407 16.4955L14.3031 16.4999H9.41585L10.7578 17.8419C10.8974 17.9818 10.9822 18.167 10.9967 18.364C11.0112 18.561 10.9546 18.7567 10.837 18.9155L10.7578 19.0079C10.6181 19.1479 10.4327 19.2331 10.2354 19.2478C10.0382 19.2625 9.84215 19.2059 9.68315 19.0882L9.59075 19.0079L6.84075 16.2579C6.70119 16.1181 6.61645 15.9328 6.60191 15.7358C6.58738 15.5388 6.64402 15.3431 6.76155 15.1843L6.84075 15.0919L9.59075 12.3419C9.73815 12.1957 9.93528 12.1104 10.1428 12.1031C10.3503 12.0958 10.553 12.167 10.7103 12.3025C10.8676 12.438 10.968 12.6279 10.9915 12.8342C11.015 13.0405 10.9599 13.2481 10.837 13.4155L10.7578 13.5079L9.41585 14.8499H14.302C15.2866 14.85 16.2338 14.4729 16.9489 13.7961C17.6639 13.1193 18.0925 12.1942 18.1465 11.2111L18.152 10.9999C18.152 9.81083 17.613 8.74713 16.766 8.04093C16.6446 7.92831 16.5598 7.78173 16.5228 7.62027C16.4858 7.45881 16.4982 7.28994 16.5585 7.13565C16.6188 6.98137 16.7242 6.8488 16.8608 6.75521C16.9975 6.66162 17.1592 6.61135 17.3248 6.61093ZM11.2418 2.99193C11.3816 2.85192 11.567 2.76679 11.7643 2.75205C11.9615 2.73731 12.1575 2.79394 12.3165 2.91163L12.4089 2.99193L15.1589 5.74193L15.2381 5.83433C15.3419 5.97438 15.3987 6.1437 15.4002 6.318C15.4018 6.4923 15.3482 6.66262 15.2469 6.80453L15.1589 6.90793L12.4089 9.65793L12.3165 9.73823C12.1763 9.84209 12.0067 9.89879 11.8322 9.90017C11.6576 9.90156 11.4871 9.84755 11.3452 9.74593L11.2418 9.65793L11.1626 9.56553C11.0589 9.42548 11.0021 9.25616 11.0005 9.08186C10.999 8.90756 11.0526 8.73724 11.1538 8.59533L11.2418 8.49193L12.5838 7.14993H7.69985C6.71508 7.14957 5.76762 7.52658 5.05232 8.20341C4.33702 8.88025 3.90827 9.80545 3.85425 10.7887L3.84765 10.9999C3.84765 12.1912 4.38885 13.256 5.23915 13.9622C5.38957 14.1123 5.47631 14.3145 5.48131 14.5269C5.48631 14.7393 5.40919 14.9455 5.26599 15.1024C5.1228 15.2593 4.92458 15.355 4.71263 15.3694C4.50067 15.3839 4.29131 15.316 4.12815 15.1799C3.28905 14.4627 2.68517 13.5097 2.39504 12.4446C2.10491 11.3796 2.14196 10.2519 2.50136 9.20824C2.86077 8.16455 3.5259 7.25316 4.41026 6.59259C5.29462 5.93201 6.35728 5.55282 7.46005 5.50433L7.69655 5.49993H12.5816L11.2418 4.15793L11.1626 4.06553C11.0451 3.90674 10.9885 3.71105 11.003 3.51403C11.0175 3.31702 11.1023 3.13175 11.2418 2.99193Z" fill="#040353"/>
</svg>
