<svg width="22" height="22" viewBox="0 0 22 22" fill="none" xmlns="http://www.w3.org/2000/svg">
<path d="M5.06765 2.16992L5.17636 6.46276L9.70153 8.99663L5.06765 2.16992ZM16.2785 3.14076L12.0917 4.68634L12.9913 12.0312L16.2785 3.14076ZM21.2293 6.52455L15.4754 9.09992L18.3785 14.2454L18.6215 14.6779L18.1488 14.827L14.6227 15.9347L17.0907 18.0509L18.1112 18.9264L16.7779 18.7545L5.85436 17.3446L4.33301 17.1485L5.75502 16.5738L11.2201 14.3676L7.45508 12.6771L0.848633 15.6366V21.2508H21.2293V6.52455H21.2293ZM5.85582 8.69318L1.70805 9.66664L12.3146 12.7751L5.85587 8.69309L5.85582 8.69318Z" fill="#040353"/>
</svg>
