<svg width="22" height="22" viewBox="0 0 22 22" fill="none" xmlns="http://www.w3.org/2000/svg">
<path d="M4 3.00078C3.44687 3.00078 3 3.44763 3 4.00073V18.5C3 18.775 3.225 19 3.5 19H4.5C4.775 19 5 18.775 5 18.5V4.00073C5 3.44763 4.55313 3.00078 4 3.00078ZM12.3719 12.4878C10.5844 12.016 8.88125 11.5879 6 12.8347V15.0002C11.8031 12.1191 12.9281 16.6657 18.4219 14.2784C18.7781 14.1221 19 13.7628 19 13.3784V12.2535C17.6375 12.7941 16.4937 13.0065 15.4969 13.0065C14.3281 13.0034 13.3438 12.7441 12.3719 12.4878ZM12.3719 9.48797C10.5844 9.01611 8.88125 8.58801 6 9.83482V11.7566C8.9625 10.5817 10.8313 11.0473 12.6281 11.5191C14.4156 11.991 16.1187 12.4191 19 11.1723V9.25048C17.6375 9.79108 16.4937 10.0036 15.4969 10.0036C14.3281 10.0036 13.3438 9.7442 12.3719 9.48797ZM12.6687 5.55378C14.2875 6.04126 15.7125 6.45999 19 4.92569V3.96323C19 3.1789 18.1625 2.77267 17.4563 3.13203C12.1031 5.86002 12.5437 1.05713 6 4.01323V8.75988C8.9625 7.58806 10.8313 8.05054 12.6281 8.52239C14.4156 8.99111 16.1187 9.41922 19 8.17553V6.02251C17.325 6.75685 16.0844 7.00371 15.0594 7.00371C14.0344 7.00371 13.2156 6.75997 12.3813 6.50686C12.2563 6.46936 12.1281 6.43186 12.0031 6.39749V5.36004C12.2281 5.42254 12.45 5.48816 12.6687 5.55378ZM8 7.00371C7.725 7.00371 7.5 6.78185 7.5 6.50374C7.5 6.22875 7.725 6.00376 8 6.00376C8.275 6.00376 8.5 6.22562 8.5 6.50374C8.5 6.78185 8.275 7.00371 8 7.00371ZM8 5.26005C7.725 5.26005 7.5 5.03818 7.5 4.76007C7.5 4.48508 7.725 4.2601 8 4.2601C8.275 4.2601 8.5 4.48196 8.5 4.76007C8.5 5.03506 8.275 5.26005 8 5.26005ZM10 6.75685C9.725 6.75685 9.5 6.53498 9.5 6.25687C9.5 5.98189 9.725 5.7569 10 5.7569C10.275 5.7569 10.5 5.97876 10.5 6.25687C10.5 6.53186 10.275 6.75685 10 6.75685ZM10 5.01006C9.725 5.01006 9.5 4.78819 9.5 4.51008C9.5 4.2351 9.725 4.01011 10 4.01011C10.275 4.01011 10.5 4.23197 10.5 4.51008C10.5 4.78507 10.275 5.01006 10 5.01006Z" fill="#040353"/>
</svg>
