<svg width="22" height="22" viewBox="0 0 22 22" fill="none" xmlns="http://www.w3.org/2000/svg">
<path d="M1.83301 5.49992C1.83301 4.12034 2.54801 2.67659 3.66634 1.83325C3.66634 2.60784 4.29884 3.66659 5.49967 3.66659C6.22902 3.66659 6.92849 3.95632 7.44422 4.47204C7.95994 4.98777 8.24967 5.68724 8.24967 6.41659C8.24967 6.77042 8.17726 7.10592 8.05534 7.41667C8.73528 7.9563 9.40488 8.50885 10.0638 9.074L8.15709 10.9807C7.59216 10.3216 7.03962 9.65201 6.49976 8.97225C6.18155 9.09923 5.84228 9.16516 5.49967 9.16659C3.47384 9.16659 1.83301 7.52575 1.83301 5.49992ZM12.9723 11.7773L14.2016 10.548C14.7708 10.8411 15.4011 10.9959 16.0413 10.9999C17.1354 10.9999 18.1846 10.5653 18.9582 9.79173C19.7317 9.01815 20.1663 7.96894 20.1663 6.87492C20.1663 6.21034 19.994 5.59067 19.7144 5.03517L16.4997 8.24992L14.6663 6.41659L17.8811 3.20184C17.3119 2.90878 16.6816 2.75396 16.0413 2.74992C14.9473 2.74992 13.8981 3.18452 13.1245 3.9581C12.3509 4.73169 11.9163 5.7809 11.9163 6.87492C11.9163 7.5395 12.0887 8.15917 12.3683 8.71467L2.74967 18.3333L4.58301 20.1666L10.8603 13.8893C12.5868 15.6606 14.4163 17.3285 16.3393 18.8842L17.6455 19.9374L19.0205 18.5624L17.9673 17.2562C16.4116 15.3332 14.7437 13.5037 12.9723 11.7773Z" fill="#040353"/>
</svg>
