<svg width="24" height="22" viewBox="0 0 24 22" fill="none" xmlns="http://www.w3.org/2000/svg">
<path d="M21 6.41667H3V2.75H21V6.41667ZM13 17.4167C13 18.0583 13.13 18.6725 13.35 19.25H4V7.33333H20V11.9992C19.67 11.9533 19.34 11.9167 19 11.9167C15.69 11.9167 13 14.3825 13 17.4167ZM15 11.9167V10.5417C15 10.285 14.78 10.0833 14.5 10.0833H9.5C9.22 10.0833 9 10.285 9 10.5417V11.9167H15ZM22.54 15.4733L21.12 14.1808L19 16.1242L16.88 14.1808L15.47 15.4733L17.59 17.4167L15.47 19.36L16.88 20.6617L19 18.7092L21.12 20.6617L22.54 19.36L20.41 17.4167L22.54 15.4733Z" fill="#040353"/>
</svg>
