<svg width="64" height="64" viewBox="0 0 64 64" fill="none" xmlns="http://www.w3.org/2000/svg">
<g clip-path="url(#clip0_15_4)">
<path d="M23.2077 46.0917C22.6257 48.9531 22.2478 50.3365 20.0392 50.5137C19.495 50.5574 19.0518 50.9681 18.9669 51.5074C18.8818 52.0465 19.1774 52.5738 19.6818 52.7828C19.8238 52.8414 23.2018 54.2217 27.1484 54.2219C27.149 54.2219 27.1494 54.2219 27.1498 54.2219C29.9001 54.2219 32.2593 53.5552 34.1618 52.2405C36.4163 50.6826 37.9706 48.2446 38.797 44.997L31.2022 37.3416C24.7839 38.3804 23.8746 42.813 23.2077 46.0917Z" fill="#A51W20"/>
<path d="M63.548 12.4708C63.3438 12.2648 62.9796 12.0193 62.4048 12.0193C61.7309 12.0193 59.9405 12.0193 49.0669 21.272C44.0442 25.5458 38.2532 30.8332 33.647 35.3325L40.8541 42.5969C45.5916 37.6726 51.1182 31.5007 55.5134 26.2035C58.2889 22.859 60.423 20.0992 61.8567 18.0013C63.7556 15.2224 64.5873 13.5181 63.548 12.4708Z" fill="#ffffff"/>
<path d="M35.9527 54.8322C33.5138 56.5177 30.552 57.372 27.1482 57.372C22.6682 57.3718 18.8944 55.8659 18.4756 55.6931C16.6198 54.924 15.5422 53.0009 15.8549 51.0169C16.1611 49.0733 17.7181 47.5962 19.6631 47.3849C19.8326 46.8787 20.0201 45.9566 20.1205 45.4636C20.4903 43.6462 20.9965 41.1568 22.5538 38.9411C24.2544 36.5218 26.8178 34.9706 30.1838 34.3207C32.1156 32.4035 34.3197 30.2955 36.6196 28.1562C35.457 27.9039 34.4173 27.1467 33.8597 26.0013C32.8998 24.0284 33.737 21.6552 35.7271 20.7057C37.7223 19.7539 40.1154 20.5852 41.0739 22.5611C41.2631 22.9506 41.3801 23.3552 41.4346 23.7614C43.3422 22.0529 45.2365 20.3946 47.025 18.8728C47.0356 18.8637 47.0456 18.8551 47.0565 18.846C45.0463 14.9994 42.1637 11.5913 38.6514 8.98177C33.6081 5.23458 27.6027 3.2528 21.285 3.25122C21.283 3.25122 21.2816 3.25122 21.28 3.25122C17.0164 3.25122 11.8336 4.74096 7.75368 7.13978C2.75284 10.0799 -0.00098423 14.0119 2.63876e-07 18.2112C0.00157545 23.281 2.86094 25.4016 5.15855 27.1053C7.03205 28.4948 8.51174 29.5922 8.51253 31.9971C8.51312 34.4018 7.03421 35.4981 5.1617 36.8863C2.86488 38.5891 0.00610413 40.7085 0.00767932 45.7788C0.00886071 49.9775 2.76446 53.9105 7.76667 56.8532C11.8496 59.255 17.0351 60.7478 21.2995 60.749C21.3025 60.749 21.305 60.749 21.3078 60.749C29.0469 60.749 36.3221 57.7619 41.7939 52.3375C45.8967 48.2706 48.6177 43.1983 49.7237 37.68C46.9765 40.7262 44.2111 43.684 41.7368 46.21C40.6874 50.0054 38.7444 52.9032 35.9527 54.8322ZM21.8664 15.1815C22.3583 13.041 24.5049 11.7049 26.6617 12.1952C28.8156 12.6831 30.1651 14.8104 29.6768 16.9479C29.1847 19.0831 27.037 20.4194 24.8799 19.9317C22.7243 19.4465 21.3742 17.3167 21.8664 15.1815ZM8.87108 22.4764C7.4918 20.7603 7.77534 18.2626 9.50431 16.8965C11.2331 15.533 13.7516 15.8126 15.1334 17.5256C16.5098 19.2392 16.2253 21.7369 14.4977 23.1057C12.7726 24.4722 10.2502 24.1896 8.87108 22.4764ZM10.9763 48.6671C9.24637 47.2999 8.96185 44.8022 10.3411 43.0866C11.7194 41.3744 14.2389 41.0936 15.9687 42.4605C17.6971 43.8275 17.9818 46.3254 16.6037 48.038C15.2256 49.7536 12.7059 50.0342 10.9763 48.6671Z" fill="#A51C20"/>
</g>
<defs>
<clipPath id="clip0_15_4">
<rect width="64" height="64" fill="white"/>
</clipPath>
</defs>
</svg>
