<svg width="33" height="32" viewBox="0 0 33 32" fill="none" xmlns="http://www.w3.org/2000/svg">
<rect x="0.5" width="32" height="32" rx="16" fill="white"/>
<path d="M16.5 8C17.5609 8 18.5783 8.42143 19.3284 9.17157C20.0786 9.92172 20.5 10.9391 20.5 12C20.5 13.0609 20.0786 14.0783 19.3284 14.8284C18.5783 15.5786 17.5609 16 16.5 16C15.4391 16 14.4217 15.5786 13.6716 14.8284C12.9214 14.0783 12.5 13.0609 12.5 12C12.5 10.9391 12.9214 9.92172 13.6716 9.17157C14.4217 8.42143 15.4391 8 16.5 8ZM16.5 18C20.92 18 24.5 19.79 24.5 22V24H8.5V22C8.5 19.79 12.08 18 16.5 18Z" fill="#242424"/>
</svg>
