<svg width="90" height="70" viewBox="0 0 90 70" fill="none" xmlns="http://www.w3.org/2000/svg">
<path d="M0 33.966C3.36359 28.5301 6.72718 23.1125 10.1093 17.6767C11.8095 14.9315 12.8814 14.9497 14.6002 17.7312C17.6681 22.6944 20.7545 27.6757 23.8039 32.657C25.3008 35.1113 24.6355 36.2566 21.7524 36.293C20.4403 36.293 19.1096 36.293 17.6311 36.293C18.0747 46.9101 22.5656 55.0366 31.7323 60.0724C44.355 67.0172 56.2939 64.981 67.4936 56.2365C67.7893 56.7091 68.085 57.1454 68.3622 57.5818C68.6209 57.9817 68.8612 58.3817 69.2308 58.9998C59.7499 68.308 48.4209 72.0712 35.3546 68.8897C18.3704 64.7447 9.51784 53.2549 6.96743 36.8566C4.60183 36.3657 2.29168 35.8749 0 35.384C0 34.9113 0 34.4568 0 33.9841V33.966Z" fill="white"/>
<path d="M72.2961 33.2435C71.8704 22.2058 67.0953 13.9636 57.508 8.93173C45.0149 2.38486 33.2622 4.60322 22.2868 13.0979C21.8056 12.4126 21.3429 11.7272 20.7692 10.9156C30.4675 1.37488 41.9981 -1.94365 55.287 1.08631C67.3544 3.8277 80.3842 13.6029 83.0679 33.0812C84.493 33.0812 85.9737 33.0451 87.4358 33.0812C89.9529 33.1714 90.6377 34.2535 89.3977 36.2915C86.1402 41.5759 82.8643 46.8423 79.5698 52.0906C78.2002 54.2549 76.9787 54.2188 75.572 52.0004C72.3886 46.9505 69.2422 41.8825 66.0958 36.7965C64.5966 34.3617 65.2444 33.2796 68.1872 33.2435C69.4273 33.2255 70.6859 33.2435 72.2776 33.2435H72.2961Z" fill="white"/>
<path d="M45.0948 53.0098C35.1451 53.0642 29.0564 45.1684 31.8223 35.6207C33.7714 28.9591 37.6696 23.2777 41.9391 17.8505C43.4427 15.9446 46.3571 15.763 47.7864 17.56C52.4272 23.3866 56.7338 29.4674 58.4416 36.8187C60.5021 45.7674 54.4877 52.9553 45.0948 53.0098ZM45.8188 22.2431C45.4661 22.3157 45.1134 22.3883 44.7607 22.4609C41.4194 27.0351 38.1523 31.7 36.6115 37.218C35.2565 42.0826 37.3912 46.3119 41.6978 47.5825C45.2433 48.6353 48.7146 48.3812 51.4805 45.7674C54.1535 43.2262 54.5062 39.8137 53.1697 36.6916C51.035 31.7545 48.3062 27.0532 45.8373 22.2431H45.8188Z" fill="white"/>
<path d="M40.1538 38.7689C40.1538 38.103 40.2878 36.2533 41.5603 34.8475C41.9957 34.3666 42.4143 33.8856 42.8664 33.9966C43.7203 34.1816 43.4022 36.1423 44.6748 39.2684C45.2775 40.7297 45.7799 41.3771 45.6794 42.5979C45.6627 42.8754 45.5622 44.1887 44.725 44.6696C44.005 45.0951 43.1678 44.6696 42.8664 44.5402C40.5724 43.4303 40.2208 39.3424 40.1706 38.7874L40.1538 38.7689Z" fill="white"/>
</svg>
