<svg width="63" height="71" viewBox="0 0 63 71" fill="none" xmlns="http://www.w3.org/2000/svg">
<path d="M57.8535 41.8231C58.3972 41.8231 58.8364 41.8231 59.2755 41.8231C61.4503 41.7827 62.8304 39.9633 62.0357 38.0024C61.5339 36.7288 60.802 35.5563 60.1328 34.3434C59.61 33.3932 59.0245 32.4835 58.4599 31.5739C56.8498 29.0267 56.1388 26.2774 56.097 23.3057C56.0133 16.1899 52.6257 10.7317 46.7706 6.6482C43.2785 4.22235 39.2635 3.00942 35.0394 2.52425C29.0798 1.83692 23.2038 2.26145 17.4741 4.04041C12.9573 5.45549 9.06783 7.80048 6.14027 11.4999C3.98642 14.2088 2.66904 17.322 1.97897 20.6575C0.80795 26.3178 0.745193 31.9579 2.31353 37.5576C3.7564 42.6721 6.32847 47.2408 9.63243 51.4254C10.7825 52.8809 12.0372 54.2354 13.3128 55.5898C14.1074 56.4186 14.5047 57.2879 14.4838 58.42C14.442 60.6639 14.4838 62.8876 14.4838 65.1315C14.4838 65.6773 15.2366 66.021 15.0693 66.3646C14.8602 66.8094 13.8774 66.7285 13.8774 66.769C13.8774 66.8296 16.5122 67.1935 17.265 66.0008C17.4323 65.7178 17.4741 65.455 17.4741 65.2932C17.4741 62.6652 17.495 60.0574 17.4741 57.4294C17.4741 56.1761 16.8886 55.1046 16.094 54.1545C15.5294 53.4874 14.9021 52.8607 14.2956 52.2138C9.96703 47.6654 6.66306 42.5104 5.07381 36.5266C3.46366 30.462 3.75642 24.3367 5.76388 18.3934C7.64589 12.7937 11.7235 9.17513 17.3486 7.13337C21.97 5.45549 26.7796 5.03096 31.6728 5.19269C35.4786 5.3342 39.1381 6.04174 42.5884 7.67919C47.858 10.1859 51.2247 14.2088 52.6885 19.6872C52.9812 20.7384 53.0649 21.8907 53.044 22.9823C52.9603 26.8637 54.1313 30.3609 56.1597 33.656C57.1007 35.1924 57.9581 36.7894 58.8573 38.346C58.9618 38.5078 59.0454 38.6897 59.15 38.9121C58.6272 38.9121 58.1672 38.8716 57.728 38.9121C56.0133 39.0536 54.8841 40.0846 54.8632 41.7422C54.8214 44.5117 54.905 47.2813 54.905 50.0508C54.905 50.9605 54.8841 51.8904 54.7378 52.8001C54.5496 53.9726 53.8595 54.8014 52.7512 55.3472C50.7228 56.358 48.6108 56.4591 46.436 56.0548C44.5959 55.7111 42.7766 55.327 40.9364 54.9631C40.6018 54.9025 40.2464 54.9025 39.9118 54.9025C37.3815 54.9025 35.9596 56.075 35.6041 58.5211C35.5204 59.168 35.4786 59.8148 35.4786 60.4617C35.4577 63.8984 35.0186 64.8889 35.4786 67.4361C35.5204 67.6584 35.8341 69.3565 36.3569 69.3768C36.5241 69.3768 36.5869 69.1948 37.0051 68.9927C37.507 68.7501 37.7789 68.8714 38.0298 68.649C38.3435 68.3862 38.5107 67.9617 38.4898 67.3956C38.4898 65.1113 38.4898 62.8067 38.4689 60.5224C38.4689 60.3202 38.4689 60.1181 38.4898 59.9159C38.5735 58.137 39.159 57.6922 40.9573 58.0157C43.2576 58.42 45.5369 58.8445 47.8371 59.2286C48.8827 59.4105 49.9491 59.3903 50.9529 59.0467C52.0402 58.6626 53.1485 58.2785 54.1941 57.8135C56.1597 56.9442 57.2471 55.4079 57.6235 53.3863C57.7699 52.6181 57.8535 51.85 57.8535 51.0818C57.8535 48.6357 57.7908 46.1694 57.7699 43.7233C57.7699 43.0764 57.8535 42.4498 57.8744 41.8029L57.8535 41.8231Z" fill="white"/>
<path d="M22.9738 37.7193C22.9738 37.7193 22.932 37.5374 22.9111 37.4565C22.472 35.8999 21.5519 34.6466 20.4227 33.4741C15.404 28.2585 16.2613 20.0106 22.221 15.9069C27.2815 12.4298 34.2031 13.198 38.3226 17.6858C42.463 22.2141 42.4421 28.9054 38.2389 33.3326C37.0261 34.6061 36.3151 36.1223 35.646 37.6587C35.5832 37.78 35.646 38.0226 35.7506 38.1034C36.3361 38.6897 36.5242 39.2961 36.2524 39.943C35.9596 40.6304 35.3741 40.7921 34.6841 40.7921C31.652 40.7921 28.6198 40.7921 25.5668 40.7921C24.7304 40.7921 23.8939 40.7921 23.0365 40.7921C22.1374 40.7719 21.5519 40.1452 21.5937 39.2759C21.6146 38.5077 21.991 38.1236 22.9529 37.8406C22.9529 37.78 22.9738 37.7395 22.9738 37.6991V37.7193ZM31.6729 37.8608C32.112 37.8608 32.342 37.7598 32.5093 37.3352C32.9902 36.2032 33.4712 35.0711 34.0776 34.0199C34.6004 33.1304 35.2068 32.2612 35.9178 31.493C38.4272 28.7841 39.0963 25.0645 37.5698 21.8502C36.0015 18.5551 32.6556 16.5537 28.8916 16.6548C25.3158 16.7559 22.0328 18.9594 20.7781 22.2949C19.4607 25.7518 20.1717 28.8852 22.7438 31.594C23.9357 32.8474 24.9186 34.2018 25.525 35.8191C25.7132 36.3447 25.8805 36.8703 26.0059 37.4161C26.0896 37.78 26.2569 37.881 26.6333 37.881C27.4906 37.8608 28.348 37.881 29.2054 37.881C30.0209 37.881 30.8573 37.8608 31.6729 37.881V37.8608Z" fill="white"/>
<path d="M28.9961 42.1265C27.8878 42.1265 26.7795 42.1265 25.6712 42.1265C24.7302 42.1265 24.1447 42.6925 24.1447 43.5618C24.1447 44.431 24.7302 45.0173 25.6503 45.0375C27.8877 45.0375 30.1253 45.0375 32.3418 45.0375C33.2619 45.0375 33.8265 44.431 33.8056 43.5415C33.8056 42.6925 33.2201 42.1467 32.3 42.1265C31.1917 42.1265 30.0834 42.1265 28.9751 42.1265H28.9961Z" fill="white"/>
<path d="M28.9751 49.2624C29.477 49.2624 29.9789 49.2827 30.4598 49.2624C31.2753 49.222 31.7982 48.656 31.7982 47.8271C31.7982 46.9983 31.2753 46.4121 30.4598 46.3716C29.4561 46.3312 28.4315 46.3312 27.4277 46.3716C26.654 46.3918 26.1521 46.9983 26.1312 47.8069C26.1312 48.5953 26.6331 49.2018 27.4068 49.2624C27.9296 49.3029 28.4315 49.2624 28.9543 49.2624H28.9751Z" fill="white"/>
<path d="M42.9857 18.9796C43.9685 18.454 45.265 17.989 46.0596 16.8772C46.4151 16.392 46.206 15.6643 45.7668 15.2397C45.3277 14.8152 44.5749 14.6737 44.0312 14.9971C43.2784 15.4217 42.5466 15.8866 41.8147 16.3718C41.2501 16.7761 41.0827 17.423 41.3128 18.0497C41.5219 18.6157 42.0865 18.9796 42.9857 18.9796Z" fill="white"/>
<path d="M12.1836 16.3313C12.1836 16.8165 12.4764 17.2612 12.9782 17.5644C13.6056 17.9688 14.212 18.3529 14.8602 18.7369C15.5921 19.1615 16.4495 18.9997 16.9304 18.3529C17.3696 17.7666 17.2859 16.8973 16.6168 16.4324C15.864 15.8866 15.0902 15.3812 14.2747 14.9769C13.3546 14.5119 12.2045 15.2801 12.1836 16.3515V16.3313Z" fill="white"/>
<path d="M30.7735 9.35723C30.7735 8.97313 30.7735 8.58904 30.7735 8.20494C30.7317 7.41654 30.1043 6.83029 29.2888 6.81008C28.4942 6.78986 27.825 7.37611 27.7832 8.18473C27.7414 9.01356 27.7414 9.8424 27.7832 10.6712C27.825 11.4394 28.4942 12.0257 29.3097 12.0257C30.0625 12.0257 30.7108 11.4192 30.7526 10.651C30.7735 10.2265 30.7526 9.80196 30.7526 9.37744L30.7735 9.35723Z" fill="white"/>
<path d="M58.4599 41.7019C59.0245 41.7019 59.4637 41.7019 59.9237 41.7019C62.1612 41.6614 63.5831 39.7814 62.7676 37.7801C62.2448 36.4863 61.492 35.2531 60.802 34.02C60.2583 33.0496 59.6728 32.0995 59.0664 31.1696C57.4144 28.5618 56.6825 25.7114 56.6407 22.6589C56.557 15.3207 53.0648 9.7008 47.0215 5.49598C43.4248 2.98927 39.3053 1.75613 34.9349 1.25074C28.8079 0.543198 22.7437 0.967722 16.8468 2.80733C12.1836 4.26284 8.18955 6.6887 5.17835 10.4892C2.96177 13.2991 1.60254 16.473 0.89156 19.9096C-0.321286 25.7317 -0.384023 31.5335 1.24705 37.3151C2.73174 42.5913 5.38745 47.2813 8.79597 51.6074C9.96699 53.1034 11.2844 54.4982 12.6018 55.8931C13.4173 56.7422 13.8355 57.6316 13.8146 58.8041C13.7728 61.1087 13.8146 63.4133 13.8146 65.7178C13.8146 66.2838 14.5884 66.6275 14.4211 66.9914C14.212 67.4563 13.1873 67.3755 13.1873 67.4159C13.1873 67.4968 15.9058 67.8607 16.6795 66.6275C16.8677 66.3445 16.8886 66.0615 16.8886 65.8998C16.8886 63.1909 16.9095 60.5022 16.8886 57.7934C16.8886 56.4996 16.2822 55.4079 15.4666 54.4174C14.8811 53.73 14.2329 53.0832 13.6055 52.4363C9.15146 47.7665 5.74293 42.4498 4.11186 36.2841C2.45988 30.0375 2.75266 23.7303 4.82286 17.605C6.7676 11.8436 10.9498 8.12399 16.7422 6.00137C21.489 4.26284 26.445 3.83832 31.4846 4.02026C35.3949 4.16176 39.1799 4.88952 42.7138 6.5674C48.1298 9.13477 51.622 13.2789 53.1276 18.9393C53.4204 20.0309 53.5249 21.2034 53.504 22.3355C53.4203 26.3179 54.6332 29.9365 56.7243 33.3327C57.7071 34.9095 58.5854 36.5469 59.5055 38.1642C59.61 38.3461 59.6937 38.528 59.7983 38.7504C59.2546 38.7504 58.7945 38.71 58.3345 38.7504C56.5779 38.8919 55.4069 39.9633 55.386 41.6614C55.3442 44.5118 55.4278 47.3622 55.4278 50.2126C55.4278 51.1627 55.386 52.1128 55.2396 53.0427C55.0514 54.2354 54.3195 55.1047 53.1903 55.6707C51.1201 56.7017 48.9244 56.8028 46.6869 56.3985C44.8049 56.0548 42.9229 55.6505 41.02 55.2866C40.6855 55.226 40.309 55.226 39.9535 55.226C37.3397 55.226 35.8759 56.4389 35.5204 58.9456C35.4368 59.6127 35.3949 60.2799 35.3949 60.9267C35.374 64.4645 34.914 65.4752 35.3949 68.1235C35.4368 68.3458 35.7713 70.1046 36.2941 70.1248C36.4614 70.1248 36.5241 69.9428 36.9423 69.7205C37.4651 69.4577 37.737 69.5992 37.9879 69.3768C38.3016 69.0938 38.4689 68.6693 38.4689 68.1032C38.4689 65.738 38.4689 63.393 38.4479 61.0278C38.4479 60.8257 38.448 60.6033 38.4689 60.4012C38.5525 58.5818 39.1589 58.1168 41.02 58.4605C43.383 58.885 45.7459 59.3095 48.1089 59.7138C49.1963 59.8958 50.2836 59.8755 51.3083 59.5319C52.4375 59.1478 53.5667 58.7435 54.6541 58.2583C56.6825 57.3688 57.7907 55.7718 58.1881 53.7098C58.3344 52.9214 58.439 52.133 58.439 51.3244C58.439 48.7975 58.3763 46.2705 58.3554 43.7436C58.3554 43.0967 58.439 42.4296 58.4808 41.7625L58.4599 41.7019Z" fill="white"/>
</svg>
