<svg width="50" height="50" viewBox="0 0 50 50" fill="none" xmlns="http://www.w3.org/2000/svg">
<path d="M45.6014 0H3.88506C1.74287 0 0 1.75973 0 3.92276V27.6387C0 29.8017 1.74287 31.5614 3.88506 31.5614H13.4941C14.0356 31.5614 14.4745 31.1182 14.4745 30.5715C14.4745 30.0249 14.0355 29.5816 13.494 29.5816H3.88506C2.82402 29.5816 1.96084 28.71 1.96084 27.6387V3.92276C1.96084 2.8514 2.82402 1.97982 3.88506 1.97982H45.6014C46.6625 1.97982 47.5257 2.8514 47.5257 3.92276V27.6387C47.5257 28.71 46.6625 29.5816 45.6014 29.5816H42.6573C42.1158 29.5816 41.6769 30.0249 41.6769 30.5715C41.6769 31.1182 42.1159 31.5614 42.6573 31.5614H45.6014C47.7436 31.5614 49.4864 29.8017 49.4864 27.6387V3.92276C49.4864 1.75973 47.7436 0 45.6014 0Z" fill="white"/>
<path d="M49.9991 36.3701C49.9742 35.5895 49.4894 34.9096 48.7643 34.638V34.6379L32.5487 28.5634C31.4505 28.1522 30.2539 28.4161 29.4258 29.2521C28.5976 30.0881 28.336 31.2963 28.743 32.405L34.7437 48.7515C35.0139 49.4875 35.6906 49.9772 36.4676 49.9991C36.4858 49.9997 36.5037 49.9999 36.5217 49.9999C37.2771 49.9999 37.9545 49.5535 38.2577 48.8506L39.9175 45.0029L43.5161 48.6376C44.5404 49.6721 46.2073 49.6725 47.2319 48.6382L48.6201 47.2368C49.1163 46.7358 49.3898 46.0696 49.3899 45.3609C49.39 44.6523 49.1167 43.9861 48.6206 43.4849L45.0674 39.8964L48.8776 38.1789C49.5838 37.8605 50.0241 37.1506 49.9991 36.3701ZM42.9671 38.6747C42.6724 38.8075 42.4614 39.0783 42.4027 39.3987C42.3441 39.7191 42.4453 40.0481 42.6734 40.2786L47.2339 44.8849C47.4938 45.1473 47.4938 45.5743 47.2338 45.8367L45.8456 47.2381C45.7198 47.3652 45.5524 47.4351 45.3743 47.4351H45.3743C45.1961 47.4351 45.0287 47.3651 44.9029 47.2379L40.2868 42.5756C40.0575 42.344 39.7296 42.2422 39.4109 42.3028C39.0922 42.3638 38.8241 42.5799 38.6946 42.8802L36.5254 47.9085L30.5816 31.717C30.3748 31.1538 30.7058 30.7597 30.8122 30.6523C30.8941 30.5697 31.1445 30.3524 31.5102 30.3524C31.6193 30.3524 31.7387 30.3718 31.8667 30.4198L47.9309 36.4374L42.9671 38.6747ZM48.0829 36.4945C48.0827 36.4943 48.0826 36.4942 48.0823 36.4941L48.4233 35.5661L48.0829 36.4945Z" fill="white"/>
<path d="M27.9225 26.329L25.1522 23.5315C24.7693 23.1451 24.1486 23.1451 23.7657 23.5315C23.3828 23.9182 23.3828 24.5449 23.7656 24.9315L26.536 27.729C26.7275 27.9223 26.9783 28.0189 27.2293 28.0189C27.4802 28.0189 27.7311 27.9223 27.9225 27.729C28.3055 27.3424 28.3055 26.7156 27.9225 26.329Z" fill="white"/>
<path d="M25.2047 29.5903H21.2868C20.7453 29.5903 20.3064 30.0336 20.3064 30.5802C20.3064 31.1269 20.7454 31.5702 21.2868 31.5702H25.2047C25.7461 31.5702 26.1851 31.1269 26.1851 30.5802C26.1851 30.0336 25.7461 29.5903 25.2047 29.5903Z" fill="white"/>
<path d="M30.8305 19.9536C30.2891 19.9536 29.8501 20.3968 29.8501 20.9435V24.8996C29.8501 25.4463 30.2891 25.8895 30.8305 25.8895C31.3719 25.8895 31.8108 25.4463 31.8108 24.8996V20.9435C31.8108 20.3968 31.3719 19.9536 30.8305 19.9536Z" fill="white"/>
<path d="M39.0613 21.7928C38.6784 21.4064 38.0577 21.4063 37.6748 21.7928L34.9044 24.5902C34.5215 24.9768 34.5215 25.6035 34.9043 25.9902C35.0958 26.1834 35.3467 26.2801 35.5976 26.2801C35.8485 26.2801 36.0995 26.1834 36.2909 25.9902L39.0613 23.1928C39.4442 22.8062 39.4442 22.1794 39.0613 21.7928Z" fill="white"/>
<path d="M26.7856 34.1878C26.4027 33.8013 25.7819 33.8013 25.3991 34.1878L22.6287 36.9852C22.2458 37.3719 22.2459 37.9986 22.6287 38.3853C22.8201 38.5785 23.071 38.6752 23.322 38.6752C23.5729 38.6752 23.8238 38.5785 24.0152 38.3853L26.7856 35.5878C27.1685 35.2012 27.1684 34.5744 26.7856 34.1878Z" fill="white"/>
<path d="M17.3838 31.5641C17.9269 31.5641 18.3672 31.1195 18.3672 30.5711C18.3672 30.0227 17.9269 29.5781 17.3838 29.5781C16.8407 29.5781 16.4004 30.0227 16.4004 30.5711C16.4004 31.1195 16.8407 31.5641 17.3838 31.5641Z" fill="white"/>
<path d="M17.2132 14.6081C18.0724 14.2315 18.5912 13.3476 18.5912 12.0054C18.5912 9.68105 17.0187 9.12451 15.3328 9.12451H12.2041C11.7339 9.12451 11.28 9.35367 11.28 9.79563V20.4353C11.28 20.7791 11.6367 21.0901 12.2041 21.0901H15.6408C17.4726 21.0901 18.883 20.1735 18.883 17.6199V17.2762C18.883 15.6392 18.2021 15.001 17.2132 14.6081ZM13.3712 10.9905H15.1707C15.9974 10.9905 16.4837 11.5142 16.4837 12.3655C16.4837 13.2002 16.0623 13.7731 15.1869 13.7731H13.3712V10.9905ZM16.7756 17.4398C16.7756 18.6838 16.192 19.2241 15.2032 19.2241H13.3713V15.4428H15.2032C16.192 15.4428 16.7756 15.9011 16.7756 17.1779V17.4398Z" fill="white"/>
<path d="M27.0696 9.12451C26.5346 9.12451 26.0159 9.32094 26.0159 9.77926V17.4398C26.0159 18.7165 25.3512 19.3222 24.2327 19.3222C23.1141 19.3222 22.4495 18.7165 22.4495 17.4398V9.77926C22.4495 9.32084 21.9145 9.12451 21.3958 9.12451C20.8608 9.12451 20.342 9.32094 20.342 9.77926V17.4398C20.342 20.1734 22.0442 21.1883 24.2327 21.1883C26.4049 21.1883 28.1233 20.1734 28.1233 17.4398V9.77926C28.1233 9.32084 27.5883 9.12451 27.0696 9.12451Z" fill="white"/>
<path d="M36.8123 9.12451C36.4718 9.12451 36.3259 9.27183 36.18 9.55L33.6998 14.2806L31.2357 9.55C31.0898 9.25546 30.9277 9.12451 30.5873 9.12451C30.0199 9.12451 29.1931 9.48452 29.1931 10.0084C29.1931 10.0575 29.2093 10.1394 29.2417 10.2212L32.5974 16.0812C32.6298 16.1303 32.646 16.2121 32.646 16.294V20.4189C32.646 20.8609 33.181 21.0901 33.6998 21.0901C34.2347 21.0901 34.7535 20.8608 34.7535 20.4189V16.294C34.7535 16.2121 34.7859 16.1303 34.8183 16.0812L38.1578 10.2212C38.2064 10.1394 38.2064 10.0575 38.2064 10.0084C38.2064 9.48452 37.3796 9.12451 36.8123 9.12451Z" fill="white"/>
</svg>
