<svg width="21" height="20" viewBox="0 0 21 20" fill="none" xmlns="http://www.w3.org/2000/svg">
<path d="M16.3333 15.8335V6.66683H4.66667V15.8335H16.3333ZM13.8333 0.833496H15.5V2.50016H16.3333C16.7754 2.50016 17.1993 2.67576 17.5118 2.98832C17.8244 3.30088 18 3.7248 18 4.16683V15.8335C18 16.7585 17.2583 17.5002 16.3333 17.5002H4.66667C4.22464 17.5002 3.80072 17.3246 3.48816 17.012C3.17559 16.6994 3 16.2755 3 15.8335V4.16683C3 3.24183 3.74167 2.50016 4.66667 2.50016H5.5V0.833496H7.16667V2.50016H13.8333V0.833496ZM9.66667 7.91683H11.3333V10.4168H13.8333V12.0835H11.3333V14.5835H9.66667V12.0835H7.16667V10.4168H9.66667V7.91683Z" fill="#242424"/>
</svg>
