<svg width="25" height="24" viewBox="0 0 25 24" fill="none" xmlns="http://www.w3.org/2000/svg">
<path d="M7.5 18C6.4 18 5.51 18.9 5.51 20C5.51 21.1 6.4 22 7.5 22C8.6 22 9.5 21.1 9.5 20C9.5 18.9 8.6 18 7.5 18ZM1.5 2V4H3.5L7.1 11.59L5.75 14.04C5.59 14.32 5.5 14.65 5.5 15C5.5 16.1 6.4 17 7.5 17H19.5V15H7.92C7.78 15 7.67 14.89 7.67 14.75L7.7 14.63L8.6 13H16.05C16.8 13 17.46 12.59 17.8 11.97L21.38 5.48C21.4625 5.32739 21.504 5.15598 21.5005 4.98253C21.4969 4.80908 21.4485 4.63951 21.3598 4.49039C21.2711 4.34127 21.1453 4.2177 20.9946 4.13175C20.8439 4.04579 20.6735 4.0004 20.5 4H5.71L4.77 2H1.5ZM17.5 18C16.4 18 15.51 18.9 15.51 20C15.51 21.1 16.4 22 17.5 22C18.6 22 19.5 21.1 19.5 20C19.5 18.9 18.6 18 17.5 18Z" fill="#EDB311"/>
</svg>
