<svg width="50" height="50" viewBox="0 0 50 50" fill="none" xmlns="http://www.w3.org/2000/svg">
<path d="M49.8065 11.8845L41.4733 0.346115C41.315 0.127854 41.0808 0.000976562 40.8332 0.000976562H9.16703C8.91957 0.000976562 8.6854 0.126953 8.527 0.346115L0.193829 11.8845C-0.0136872 12.1711 -0.058706 12.5701 0.0787919 12.9076C0.21629 13.245 0.510426 13.4614 0.833761 13.4614H49.1663C49.4897 13.4614 49.7838 13.245 49.9213 12.9076C50.0581 12.5711 50.014 12.172 49.8065 11.8845ZM2.61303 11.5384L9.55706 1.92307H40.4424L47.3865 11.5384H2.61303Z" fill="white"/>
<path d="M25.771 0.59326C25.6418 0.233698 25.3377 0 25.001 0H9.16791C8.86957 0 8.59458 0.183668 8.44546 0.482721C8.29634 0.781774 8.29712 1.1481 8.448 1.44613L14.2812 12.9846C14.4112 13.2412 14.6371 13.4153 14.8937 13.4538C14.9295 13.4586 14.9654 13.4614 15.0003 13.4614C15.2204 13.4614 15.4329 13.3615 15.5904 13.1797L25.5902 1.6413C25.8285 1.36636 25.9002 0.952822 25.771 0.59326ZM15.1753 10.9384L10.6179 1.92311H22.9885L15.1753 10.9384Z" fill="white"/>
<path d="M49.9122 12.0727C49.7722 11.7448 49.4823 11.5371 49.1656 11.5371H0.833008C0.516314 11.5371 0.227158 11.7448 0.0863398 12.0727C-0.0536972 12.4006 -0.0211781 12.7919 0.171299 13.0823L24.3376 49.6207C24.4951 49.8591 24.7402 49.9995 25.0001 49.9995C25.2601 49.9995 25.5051 49.8591 25.6609 49.6207L49.8273 13.0823C50.0198 12.7919 50.0522 12.4006 49.9122 12.0727ZM25.0001 47.4534L2.51794 13.4612H47.4823L25.0001 47.4534Z" fill="white"/>
<path d="M25.7951 48.7476L15.7952 12.2092C15.6853 11.8092 15.3644 11.5371 15.0002 11.5371H0.83374C0.517046 11.5371 0.22789 11.7448 0.0870722 12.0727C-0.0529647 12.4006 -0.0204457 12.7919 0.172032 13.0823L24.3384 49.6207C24.5 49.8659 24.7475 49.9995 25.0009 49.9995C25.1308 49.9995 25.2625 49.9649 25.3841 49.8899C25.7434 49.6756 25.9167 49.1928 25.7951 48.7476ZM2.51789 13.4612H14.3894L22.7692 44.0804L2.51789 13.4612Z" fill="white"/>
<path d="M41.5557 0.482721C41.4074 0.183668 41.1316 0 40.8333 0H25.0001C24.6635 0 24.3593 0.233698 24.2301 0.59326C24.1009 0.952822 24.1726 1.36636 24.411 1.6413L34.4108 13.1797C34.5675 13.3615 34.78 13.4614 35 13.4614C35.0358 13.4614 35.0717 13.4585 35.1075 13.4538C35.3634 13.4153 35.59 13.2423 35.72 12.9846L41.5532 1.44613C41.7032 1.1481 41.7041 0.781774 41.5557 0.482721ZM34.825 10.9384L27.0117 1.92311H39.3823L34.825 10.9384Z" fill="white"/>
<path d="M49.9139 12.0751C49.7739 11.7472 49.4839 11.5396 49.1672 11.5396H35.0007C34.6366 11.5396 34.3149 11.8117 34.2057 12.2117L24.2059 48.7501C24.0842 49.1943 24.2576 49.677 24.6167 49.8924C24.7384 49.9654 24.87 50.0001 25 50.0001C25.2526 50.0001 25.5 49.8665 25.6625 49.6232L49.8288 13.0848C50.0214 12.7942 50.0538 12.4029 49.9139 12.0751ZM27.2309 44.0807L35.6108 13.4615H47.4823L27.2309 44.0807Z" fill="white"/>
</svg>
