<svg width="24" height="24" viewBox="0 0 24 24" fill="none" xmlns="http://www.w3.org/2000/svg">
<path d="M6.69995 8.6998C6.88329 8.51647 7.11662 8.4248 7.39995 8.4248C7.68328 8.4248 7.91662 8.51647 8.09995 8.6998L12 12.5998L15.9 8.6998C16.0833 8.51647 16.3166 8.4248 16.6 8.4248C16.8833 8.4248 17.1166 8.51647 17.3 8.6998C17.4833 8.88314 17.575 9.11647 17.575 9.3998C17.575 9.68314 17.4833 9.91647 17.3 10.0998L12.7 14.6998C12.6 14.7998 12.4916 14.8708 12.375 14.9128C12.2583 14.9548 12.1333 14.9755 12 14.9748C11.8666 14.9748 11.7416 14.9538 11.625 14.9118C11.5083 14.8698 11.4 14.7991 11.3 14.6998L6.69995 10.0998C6.51662 9.91647 6.42495 9.68314 6.42495 9.3998C6.42495 9.11647 6.51662 8.88314 6.69995 8.6998Z" fill="white"/>
</svg>
