<svg width="24" height="24" viewBox="0 0 24 24" fill="none" xmlns="http://www.w3.org/2000/svg">
<path d="M8.7 17.2998C8.51667 17.1165 8.425 16.8831 8.425 16.5998C8.425 16.3165 8.51667 16.0831 8.7 15.8998L12.6 11.9998L8.7 8.0998C8.51667 7.91647 8.425 7.68314 8.425 7.3998C8.425 7.11647 8.51667 6.88314 8.7 6.6998C8.88334 6.51647 9.11667 6.4248 9.4 6.4248C9.68334 6.4248 9.91667 6.51647 10.1 6.6998L14.7 11.2998C14.8 11.3998 14.871 11.5081 14.913 11.6248C14.955 11.7415 14.9757 11.8665 14.975 11.9998C14.975 12.1331 14.954 12.2581 14.912 12.3748C14.87 12.4915 14.7993 12.5998 14.7 12.6998L10.1 17.2998C9.91667 17.4831 9.68334 17.5748 9.4 17.5748C9.11667 17.5748 8.88334 17.4831 8.7 17.2998Z" fill="#EDB311"/>
</svg>
