<svg width="73" height="71" viewBox="0 0 73 71" fill="none" xmlns="http://www.w3.org/2000/svg">
<path d="M0.766326 35.057C0.726155 29.7678 2.17232 24.3434 5.00439 19.2665C5.42619 18.533 5.30567 18.1276 4.7031 17.6064C3.3172 16.3903 1.99155 15.0969 0.645812 13.8421C0.284271 13.4947 -0.137526 13.1279 0.0432441 12.5874C0.2441 12.0469 0.806497 12.0276 1.30864 11.989C3.89968 11.7959 6.49072 11.6029 9.08177 11.4292C12.0344 11.2168 14.9869 11.0624 17.9395 10.8115C18.8835 10.7342 19.1848 10.908 19.1045 11.8925C18.9036 14.2475 18.8434 16.6026 18.7429 18.9577C18.6425 21.6602 18.6023 24.382 18.4617 27.0846C18.4216 27.7988 18.6425 28.8026 17.7387 29.1115C16.9152 29.401 16.413 28.571 15.8908 28.0884C14.7258 27.046 13.5809 25.9842 12.4762 24.8839C11.8536 24.2469 11.5523 24.3434 11.2309 25.1156C9.46339 29.2659 8.65997 33.532 9.14202 38.0298C9.80485 44.4001 12.4361 49.8631 17.1361 54.3415C22.981 59.901 30.0712 62.4491 38.3264 62.1017C50.0966 61.5998 61.8868 53.1061 64.1364 39.6127C66.5065 25.3279 56.303 11.6801 41.4196 9.26715C35.2131 8.26335 29.2879 9.18993 23.684 12.0276C23.3827 12.182 23.0613 12.5488 22.7199 12.3558C22.3182 12.1241 22.5592 11.6608 22.6195 11.294C22.7801 10.2323 22.9609 9.17063 23.1618 8.10892C23.2622 7.5298 23.0814 7.29816 22.4387 7.29816C20.9925 7.27885 19.5464 7.18233 18.1002 7.10512C17.7587 7.08582 17.2566 7.27885 17.116 6.89278C16.9352 6.41018 17.4976 6.29436 17.7989 6.10132C21.3942 3.9779 25.2507 2.4529 29.3883 1.64214C47.5658 -1.92906 65.5022 8.18613 71.0659 25.1349C77.4532 44.6124 64.8595 65.3061 44.1311 69.3985C24.3468 73.3172 5.1249 60.9821 1.32872 41.9485C0.906925 39.8251 0.74624 37.6824 0.74624 35.057H0.766326Z" fill="white"/>
<path d="M52.3462 32.0455C52.4466 34.111 51.603 35.8483 50.1367 37.2768C45.9188 41.3692 41.6606 45.423 37.4426 49.5154C36.8602 50.0752 36.5589 50.0559 35.9965 49.5154C31.7986 45.4423 27.5806 41.4078 23.3827 37.354C20.4101 34.4777 20.4502 30.3853 22.3584 27.3739C23.9451 24.8644 27.6007 23.88 30.714 25.0382C32.9033 25.8296 34.6307 27.2581 36.117 28.9376C36.5991 29.4781 36.8803 29.4588 37.3422 28.9376C38.467 27.6635 39.7726 26.5632 41.279 25.7138C43.167 24.6328 45.1756 24.3239 47.3047 24.8451C50.2974 25.5787 52.2056 27.9531 52.3462 31.1189C52.3462 31.4277 52.3462 31.7366 52.3462 32.0648V32.0455Z" fill="white"/>
</svg>
