<svg width="30" height="30" viewBox="0 0 30 30" fill="none" xmlns="http://www.w3.org/2000/svg">
<path fill-rule="evenodd" clip-rule="evenodd" d="M4.81241 15.0985C5.30812 9.40121 10.3298 4.77273 15.9686 4.77273C19.2269 4.77273 21.6212 5.84034 23.1423 7.49569C24.6617 9.14929 25.4259 11.5153 25.1832 14.3444C24.6642 18.3582 23.0292 19.5872 22.101 19.7887C21.6118 19.8948 21.2236 19.7654 20.9886 19.5633C20.7674 19.3731 20.6024 19.0532 20.6708 18.5676L21.8083 10.0365C21.8913 9.41446 21.4542 8.84291 20.8321 8.75997C20.21 8.67702 19.6385 9.11409 19.5555 9.73618L19.4963 10.1802C18.8803 9.44169 18.0775 8.85671 17.102 8.50665C13.7781 7.31389 10.2127 9.48707 8.94594 12.9184C7.67791 16.3532 8.99448 20.2964 12.3298 21.4932C14.5658 22.2956 16.9111 21.5748 18.5924 19.9725C18.7819 20.4831 19.0943 20.9319 19.5067 21.2865C20.326 21.991 21.4561 22.2543 22.5831 22.0097C24.8857 21.5098 26.8703 19.067 27.4405 14.6102C27.4424 14.5953 27.444 14.5802 27.4453 14.5652C27.7395 11.2059 26.844 8.16523 24.8158 5.95795C22.7852 3.74805 19.7357 2.5 15.9686 2.5C9.13365 2.5 3.14461 8.04714 2.54822 14.9015C1.94556 21.8281 7.06169 27.5 13.9782 27.5C16.1386 27.5 17.499 27.3233 19.5077 26.4741C20.0858 26.2297 20.3563 25.563 20.1119 24.9849C19.8675 24.4069 19.2007 24.1364 18.6227 24.3808C16.9662 25.0811 15.9243 25.2273 13.9782 25.2273C8.42097 25.2273 4.32298 20.7236 4.81241 15.0985ZM11.078 13.7055C12.0229 11.146 14.4624 9.97409 16.3344 10.6458C18.1948 11.3134 19.2974 13.7383 18.3538 16.2944C17.4089 18.8539 14.9694 20.0258 13.0975 19.3541C11.237 18.6864 10.1344 16.2616 11.078 13.7055Z" fill="black"/>
</svg>
