<svg width="76" height="73" viewBox="0 0 76 73" fill="none" xmlns="http://www.w3.org/2000/svg">
<path d="M38.8574 0.073894C42.458 0.073894 46.0586 0.073894 49.6591 0.073894C49.7126 0.108155 49.7839 0.159548 49.8373 0.176678C52.1902 0.947561 53.3844 2.71203 53.0814 4.95615C52.814 7.01184 51.0672 8.48508 48.6609 8.605C48.1975 8.62213 48.0727 8.79344 48.0727 9.20457C48.0727 10.0782 48.0727 10.9519 48.0727 11.8427C48.0727 12.2367 48.1797 12.4423 48.6253 12.4937C49.2135 12.5451 49.8017 12.6479 50.3721 12.7678C66.9311 15.9198 78.5883 31.0977 75.3621 48.2113C72.8132 61.7445 60.8351 71.9716 46.4507 72.8795C38.2692 73.3934 30.9255 71.1493 24.4909 66.2157C23.974 65.8216 23.4927 65.6332 22.8332 65.6503C19.5357 65.6846 16.2203 65.6675 12.9228 65.6503C11.889 65.6503 11.2651 65.0165 11.4255 64.16C11.5503 63.5261 12.0494 63.1664 12.9049 63.1664C15.2756 63.1664 17.6463 63.1664 19.9991 63.1664C20.2665 63.1664 20.5516 63.252 20.7834 63.0465C20.7299 62.7895 20.516 62.6525 20.3556 62.4812C19.3931 61.4019 18.4662 60.2884 17.7175 59.055C17.3967 58.524 17.0224 58.3869 16.4164 58.3869C13.2614 58.4212 10.1065 58.3869 6.95155 58.3869C5.72166 58.3869 5.07998 57.9758 5.06216 57.1535C5.02651 56.3141 5.68601 55.8516 6.95155 55.8516C9.64305 55.8516 12.3346 55.8516 15.0082 55.8516C15.6143 55.8516 15.8282 55.7488 15.5073 55.1492C14.9369 54.07 14.4913 52.9393 14.1348 51.7744C13.9744 51.2434 13.7249 51.0721 13.1545 51.0721C10.2669 51.0892 7.37933 51.0721 4.49176 51.0721C4.18874 51.0721 3.90355 51.0721 3.60053 51.0207C2.9232 50.9008 2.54889 50.5068 2.51324 49.8558C2.47759 49.2048 2.85191 48.7766 3.49359 48.6053C3.74313 48.5367 4.02832 48.5367 4.29569 48.5367C7.04066 48.5367 9.76782 48.5367 12.5128 48.5367C13.0297 48.5367 13.1901 48.434 13.0653 47.9029C12.798 46.7723 12.6911 45.6074 12.6376 44.4425C12.6198 43.8943 12.4059 43.7401 11.8355 43.7401C8.46665 43.7573 5.07998 43.7401 1.69332 43.7573C0.962519 43.7573 0.392139 43.6031 0 42.9864V41.9928C0.463437 41.4275 1.05164 41.239 1.80027 41.239C5.15128 41.2733 8.50228 41.239 11.8533 41.2562C12.3702 41.2562 12.5841 41.1363 12.6376 40.6052C12.7267 39.526 12.8693 38.4467 13.0297 37.3675C13.1723 36.4596 13.1901 36.4596 12.2098 36.4596C9.44698 36.4596 6.68419 36.4596 3.92139 36.4596C2.83409 36.4596 2.17458 35.5688 2.60236 34.6951C2.88756 34.1298 3.38666 33.9756 4.01052 33.9756C7.07633 33.9756 10.1243 33.9756 13.1901 33.9756C13.707 33.9756 13.9209 33.8214 14.0635 33.3589C14.4379 32.1255 14.9191 30.9435 15.5073 29.7957C15.7747 29.2818 15.6499 29.179 15.0795 29.179C12.388 29.1961 9.69652 29.179 7.02284 29.179C6.71982 29.179 6.43463 29.1961 6.13161 29.1447C5.45428 29.042 4.97304 28.4767 5.00869 27.8428C5.04433 27.2261 5.52559 26.7636 6.20292 26.6951C6.45247 26.6779 6.70202 26.6779 6.93374 26.6779C10.1421 26.6779 13.3506 26.6779 16.559 26.6779C17.0581 26.6779 17.3611 26.5409 17.6284 26.1126C18.4662 24.7935 19.4465 23.5773 20.4982 22.4124C20.6051 22.2925 20.8369 22.1897 20.6943 21.8984C18.2167 21.8984 15.739 21.8984 13.2436 21.8984C12.9228 21.8984 12.6019 21.8984 12.2989 21.8128C11.675 21.6586 11.3542 21.2303 11.3542 20.6136C11.3542 19.9969 11.7107 19.5858 12.3346 19.4488C12.6376 19.3802 12.9762 19.3802 13.2793 19.3802C16.5411 19.3802 19.7852 19.3802 23.0471 19.3802C23.5284 19.3802 23.8849 19.2603 24.2592 18.9691C25.6851 17.8042 27.2537 16.8106 28.8935 15.937C32.2089 14.1725 35.7203 12.9905 39.4635 12.4937C40.1943 12.3909 40.4616 12.1339 40.3903 11.4316C40.319 10.7806 40.3369 10.0954 40.3903 9.44441C40.4438 8.81057 40.319 8.55361 39.5526 8.51935C37.4315 8.43369 35.7025 6.89193 35.3817 4.92189C35.0608 2.90047 36.2194 0.981823 38.2514 0.228071C38.4296 0.159548 38.6079 0.073894 38.7683 0.00537109L38.8574 0.073894ZM46.2903 65.4962C47.6806 65.3591 48.857 65.1707 50.0334 64.8795C53.6161 63.9715 56.8246 62.3955 59.6765 60.1C60.0864 59.7745 60.1934 59.5518 59.73 59.1749C59.3022 58.8323 58.91 58.4212 58.5357 58.01C58.0366 57.479 58.0366 56.7424 58.5001 56.2798C58.9813 55.783 59.7656 55.7316 60.3538 56.2284C60.7638 56.5711 61.1737 56.9137 61.5124 57.3248C61.9045 57.7873 62.1719 57.7873 62.5819 57.3077C63.9722 55.6631 65.1664 53.8987 66.0755 51.98C67.1628 49.6845 67.8223 47.2691 68.1075 44.7508C68.1788 44.0827 67.9827 43.7744 67.2341 43.8258C66.7528 43.86 66.2537 43.8258 65.7546 43.8087C64.9525 43.7573 64.4178 43.2262 64.4178 42.5581C64.4178 41.8558 65.006 41.3076 65.8259 41.2904C66.4141 41.2733 67.0024 41.2733 67.6084 41.2904C68.0005 41.2904 68.1253 41.1363 68.1253 40.7765C68.1253 39.9714 67.9649 39.1834 67.8045 38.3782C67.0202 34.3868 65.2377 30.8407 62.5284 27.74C62.1362 27.2946 61.9045 27.346 61.5659 27.74C61.2094 28.134 60.8173 28.4938 60.4073 28.8364C59.7834 29.3674 59.0883 29.3674 58.5535 28.8707C58.0188 28.3739 58.0366 27.6201 58.607 27.0377C58.9813 26.6608 59.3378 26.2668 59.7478 25.9242C60.1399 25.5816 60.1221 25.3589 59.7121 25.0334C55.7551 21.8813 51.2455 20.0826 46.1298 19.6372C45.6842 19.6029 45.5595 19.7742 45.5773 20.1511C45.5773 20.7164 45.5773 21.2817 45.5773 21.8642C45.5416 22.6693 45.0782 23.149 44.3296 23.1661C43.5631 23.1833 43.0284 22.6693 42.9927 21.8642C42.9749 21.2989 42.9571 20.7336 42.9927 20.1511C43.0106 19.7057 42.868 19.5858 42.4045 19.6372C40.6577 19.8085 38.9466 20.0997 37.271 20.5965C34.1339 21.5387 31.2998 23.0291 28.7866 25.0848C28.4479 25.3589 28.3944 25.5473 28.7509 25.8385C29.2144 26.2325 29.6422 26.6437 30.0521 27.0891C30.5869 27.6715 30.5512 28.3739 30.0165 28.8707C29.4996 29.3503 28.8044 29.3503 28.2162 28.8707C27.7884 28.5109 27.3784 28.134 27.0219 27.7229C26.6476 27.2946 26.3981 27.3118 26.0238 27.74C22.7441 31.543 20.9082 35.8943 20.4447 40.7936C20.4091 41.1534 20.4982 41.3076 20.9082 41.3076C21.5498 41.2904 22.1915 41.2904 22.8332 41.3076C23.6175 41.3418 24.1344 41.8729 24.1166 42.5752C24.1166 43.2605 23.6175 43.7401 22.851 43.7744C22.245 43.8087 21.6211 43.8087 20.9973 43.7744C20.5338 43.7744 20.3912 43.9286 20.4625 44.374C20.6051 45.2648 20.6764 46.1556 20.8725 47.0464C21.6746 50.9008 23.4214 54.3441 26.0416 57.3591C26.4516 57.8216 26.6833 57.7702 27.0576 57.3591C27.4141 56.9651 27.8062 56.6053 28.1984 56.2456C28.7866 55.7316 29.5531 55.7488 30.0521 56.2284C30.5869 56.7252 30.5869 57.4276 30.0521 58.01C29.6422 58.4554 29.1965 58.8666 28.7509 59.2606C28.4301 59.5347 28.4479 59.706 28.7688 59.9801C29.6065 60.6482 30.4621 61.282 31.3711 61.8473C34.7221 63.9201 38.3762 65.1535 42.3689 65.479C42.9036 65.5133 43.064 65.3762 43.0284 64.8795C42.9927 64.3313 43.0106 63.7831 43.0284 63.252C43.064 62.464 43.6166 61.8987 44.3474 61.9158C45.0604 61.9158 45.5773 62.4469 45.6129 63.2178C45.6308 63.6974 45.6486 64.16 45.6129 64.6396C45.5595 65.2906 45.7199 65.6846 46.3437 65.4962H46.2903Z" fill="white"/>
<path d="M40.4439 34.952C40.4439 33.8899 40.4439 32.8278 40.4439 31.7485C40.4617 30.241 41.5312 29.2132 43.0819 29.1618C43.8662 29.1446 44.6683 29.1446 45.4526 29.1618C47.0033 29.196 48.055 30.1896 48.0728 31.68C48.1085 33.7871 48.1085 35.8942 48.0728 38.0012C48.0728 38.6693 48.2689 38.892 48.9819 38.8749C51.103 38.8235 53.2241 38.8578 55.3452 38.8749C57.0742 38.8749 58.1615 39.9027 58.2149 41.5473C58.2328 42.1811 58.2149 42.8321 58.2149 43.4659C58.1793 45.179 57.1277 46.2069 55.3452 46.2069C53.2954 46.2069 51.2456 46.2069 49.2136 46.2069C48.465 46.2069 48.0906 46.578 48.0906 47.3204C48.0906 49.239 48.0906 51.1576 48.0906 53.0763C48.0906 54.9264 47.039 55.92 45.1139 55.9371C44.4723 55.9371 43.8306 55.9371 43.1889 55.9371C41.5134 55.8857 40.4439 54.8236 40.4439 53.2133C40.4439 51.1234 40.4261 49.0506 40.4439 46.9606C40.4439 46.361 40.2479 46.1897 39.6596 46.1897C37.5385 46.2069 35.4174 46.1897 33.2963 46.1897C31.3356 46.1897 30.3552 45.2133 30.3374 43.346C30.3374 42.6779 30.3374 42.027 30.3374 41.3589C30.3909 39.9027 31.4604 38.8749 32.9755 38.8578C35.15 38.8578 37.3068 38.8578 39.4814 38.8578C40.533 38.8578 40.4083 38.9777 40.4083 37.9327C40.4083 36.9391 40.4083 35.9455 40.4083 34.952H40.4439Z" fill="white"/>
</svg>
