<svg width="21" height="20" viewBox="0 0 21 20" fill="none" xmlns="http://www.w3.org/2000/svg">
<path d="M16.25 16.9167L11.5833 12.25C11.1667 12.5833 10.6875 12.8472 10.1458 13.0417C9.60417 13.2361 9.02778 13.3333 8.41667 13.3333C6.90278 13.3333 5.62167 12.8089 4.57333 11.76C3.525 10.7111 3.00056 9.43 3 7.91667C3 6.40278 3.52444 5.12167 4.57333 4.07333C5.62222 3.025 6.90333 2.50056 8.41667 2.5C9.93056 2.5 11.2117 3.02444 12.26 4.07333C13.3083 5.12222 13.8328 6.40333 13.8333 7.91667C13.8333 8.52778 13.7361 9.10417 13.5417 9.64583C13.3472 10.1875 13.0833 10.6667 12.75 11.0833L17.4375 15.7708C17.5903 15.9236 17.6667 16.1111 17.6667 16.3333C17.6667 16.5556 17.5833 16.75 17.4167 16.9167C17.2639 17.0694 17.0694 17.1458 16.8333 17.1458C16.5972 17.1458 16.4028 17.0694 16.25 16.9167ZM8.41667 11.6667C9.45833 11.6667 10.3439 11.3019 11.0733 10.5725C11.8028 9.84306 12.1672 8.95778 12.1667 7.91667C12.1667 6.875 11.8019 5.98944 11.0725 5.26C10.3431 4.53056 9.45778 4.16611 8.41667 4.16667C7.375 4.16667 6.48944 4.53139 5.76 5.26083C5.03056 5.99028 4.66611 6.87556 4.66667 7.91667C4.66667 8.95833 5.03139 9.84389 5.76083 10.5733C6.49028 11.3028 7.37556 11.6672 8.41667 11.6667Z" fill="#EDB311"/>
</svg>
