<svg width="64" height="64" viewBox="0 0 64 64" fill="none" xmlns="http://www.w3.org/2000/svg">
<path fill-rule="evenodd" clip-rule="evenodd" d="M59.9321 1.46701C59.7006 1.46701 59.4652 1.49814 59.2324 1.56159L58.5849 1.73867C54.1067 2.95983 50.0051 5.34059 46.7215 8.62393L18.9963 36.3475C17.4735 37.8698 16.2025 39.6136 15.2178 41.5293L12.3605 47.0891C12.1824 47.4357 12.2472 47.8538 12.5233 48.1295L15.8705 51.4771C16.1465 51.7533 16.5651 51.8192 16.9098 51.6409C16.9099 51.6408 16.9111 51.6406 16.9111 51.6403L22.4708 48.7826C24.3829 47.7995 26.127 46.5283 27.6524 45.0039L55.3764 17.2791C58.6574 13.9974 61.0389 9.8953 62.2615 5.41577L62.4384 4.76671C62.6877 3.85213 62.4371 2.90526 61.7653 2.23446C61.2655 1.73411 60.6114 1.46705 59.9321 1.46701ZM16.5017 53.2069C15.891 53.2069 15.2892 52.9687 14.835 52.5135L11.4867 49.1655C10.759 48.4381 10.5859 47.3343 11.0566 46.4192L13.914 40.8592C14.9687 38.8078 16.3299 36.9413 17.9596 35.3111L45.6848 7.58741C49.1492 4.124 53.4758 1.61275 58.1982 0.324931L58.8472 0.147565C60.2758 -0.241997 61.754 0.150485 62.8024 1.19798C63.8495 2.24527 64.2425 3.72391 63.8519 5.1529L63.6751 5.80175C62.3852 10.5267 59.8737 14.854 56.4133 18.3154L28.6895 46.0404C27.0559 47.6724 25.1883 49.0336 23.1413 50.0861L17.5818 52.9435C17.2383 53.1207 16.868 53.207 16.5017 53.2069Z" fill="#A51C20"/>
<path fill-rule="evenodd" clip-rule="evenodd" d="M22.8053 50.1673C22.6184 50.1673 22.4313 50.0959 22.2876 49.9528L14.0475 41.7124C13.7612 41.4264 13.7612 40.9624 14.0474 40.6763C14.3337 40.3899 14.798 40.39 15.0843 40.6763L23.3244 48.9164C23.6107 49.2023 23.6107 49.6667 23.3244 49.9528C23.1808 50.0957 22.9936 50.1674 22.8053 50.1673Z" fill="#A51C20"/>
<path fill-rule="evenodd" clip-rule="evenodd" d="M12.0972 46.7278C11.9471 46.7278 11.7956 46.6817 11.6646 46.5856L0.684159 38.5214C0.288567 38.2286 0.0404378 37.7813 0.00478517 37.2928C-0.0320189 36.8056 0.144764 36.3276 0.490763 35.9817L2.88895 33.5834C3.30502 33.1684 3.91556 33.0003 4.48296 33.144L17.4799 36.3954C17.8717 36.4936 18.1109 36.8916 18.0129 37.2842C17.9138 37.6766 17.5155 37.9151 17.1236 37.8172L4.12557 34.565C4.05299 34.5467 3.9779 34.5682 3.92571 34.62L1.52769 37.0177C1.47049 37.0749 1.46276 37.1394 1.46527 37.1836C1.46918 37.22 1.48312 37.2895 1.55438 37.3414L12.5324 45.4041C12.8579 45.6441 12.9279 46.1026 12.6887 46.4288C12.5451 46.6242 12.3223 46.7279 12.0972 46.7278Z" fill="#A51C20"/>
<path fill-rule="evenodd" clip-rule="evenodd" d="M26.8332 64C26.7925 64 26.7504 63.9987 26.7072 63.9955C26.2199 63.9588 25.7734 63.7118 25.482 63.3176L17.4176 52.3362C17.1784 52.0099 17.2483 51.5514 17.574 51.3119C17.901 51.0721 18.359 51.1427 18.5994 51.4687L26.6627 62.4485C26.7123 62.5164 26.7809 62.5311 26.8179 62.5339C26.8611 62.5373 26.926 62.5291 26.9833 62.4719L29.3801 60.0752C29.4323 60.0234 29.4526 59.9477 29.4348 59.8774L26.183 46.8767C26.0851 46.4839 26.323 46.0862 26.7161 45.988C27.1093 45.89 27.5061 46.1284 27.6041 46.5211L30.8559 59.5196C30.9997 60.0858 30.8316 60.6965 30.4169 61.1115L28.0201 63.5083C27.7034 63.8246 27.2771 64.0002 26.8332 64Z" fill="#A51C20"/>
<path fill-rule="evenodd" clip-rule="evenodd" d="M59.8726 13.4867C59.5126 13.4867 59.1996 13.2216 59.1474 12.8551C58.8624 10.8074 57.9439 8.95751 56.4935 7.50544C55.0433 6.05494 53.1935 5.13722 51.1439 4.85117C50.7432 4.79508 50.4633 4.42488 50.5193 4.0241C50.5753 3.62318 50.9467 3.34416 51.3462 3.3996C53.7139 3.7299 55.8524 4.79158 57.5291 6.46934C59.2072 8.14861 60.2695 10.2868 60.599 12.6525C60.655 13.0534 60.3763 13.4237 59.9743 13.4796C59.94 13.4842 59.9069 13.4868 59.8726 13.4867Z" fill="#A51C20"/>
<path fill-rule="evenodd" clip-rule="evenodd" d="M47.4393 15.0651C47.0399 15.0651 46.6645 15.2207 46.3834 15.5029L27.1921 34.6938C26.9097 34.9761 26.7545 35.3516 26.7545 35.7509C26.7546 36.15 26.9097 36.5256 27.1921 36.8076C27.1921 36.8078 27.1934 36.808 27.1934 36.8081C27.4746 37.0907 27.8498 37.2464 28.2493 37.2464C28.6475 37.2464 29.0228 37.0907 29.3065 36.8076L48.4966 17.6165C49.0792 17.0337 49.0792 16.0856 48.4965 15.5029C48.2141 15.2206 47.8388 15.0652 47.4393 15.0651ZM28.2494 38.712C27.4581 38.712 26.715 38.4037 26.1552 37.8436C25.5968 37.2844 25.2889 36.5414 25.2889 35.7509C25.289 34.9601 25.5968 34.2166 26.1565 33.6576L45.3466 14.4663C45.905 13.9075 46.6493 13.5996 47.4393 13.5996C48.2307 13.5995 48.9736 13.9075 49.5333 14.4665C50.6872 15.6205 50.6872 17.4987 49.5333 18.6529L30.3421 37.8438C29.7823 38.4037 29.0394 38.712 28.2494 38.712Z" fill="#A51C20"/>
<path fill-rule="evenodd" clip-rule="evenodd" d="M28.6804 26.3587C28.557 26.3587 28.431 26.3277 28.3165 26.2618L4.81642 12.7918C4.32781 12.5109 4.00718 12.0313 3.93337 11.4749C3.86091 10.9194 4.04534 10.3742 4.44097 9.97867L7.7234 6.69619C8.57566 5.84342 9.8237 5.52196 10.9801 5.856L39.7104 14.0942C40.0985 14.2056 40.3236 14.6117 40.2129 15.0007C40.101 15.3896 39.6951 15.6149 39.3059 15.5031L10.5744 7.26444C9.92935 7.07774 9.23467 7.25753 8.76013 7.73259L5.47794 11.015C5.38118 11.1115 5.37864 11.2244 5.38752 11.2829C5.39521 11.3422 5.42568 11.4519 5.54654 11.5212L29.0455 24.9901C29.3967 25.1913 29.5175 25.6393 29.3165 25.9904C29.1817 26.2264 28.9348 26.3589 28.6804 26.3587Z" fill="#A51C20"/>
<path fill-rule="evenodd" clip-rule="evenodd" d="M19.088 9.6746C18.8997 9.6746 18.7126 9.6033 18.5688 9.46019C18.2828 9.17397 18.2826 8.71001 18.5688 8.42388L21.2928 5.69994C21.3233 5.66902 21.3232 5.62259 21.2926 5.59175L19.2878 3.58624C19.2571 3.55527 19.2101 3.55544 19.1795 3.58628L14.7091 8.05669C14.4229 8.34295 13.9584 8.34303 13.6721 8.05677C13.3859 7.77043 13.3859 7.30659 13.6721 7.02046L18.1428 2.54968C18.7444 1.94854 19.7228 1.94862 20.3232 2.54985L22.3295 4.55519C22.9301 5.15662 22.93 6.13491 22.3295 6.73625L19.6058 9.4599C19.462 9.60305 19.2749 9.67477 19.088 9.6746Z" fill="#A51C20"/>
<path fill-rule="evenodd" clip-rule="evenodd" d="M21.9912 13.6899C21.8042 13.6899 21.6158 13.6184 21.4733 13.4753C21.1872 13.1889 21.187 12.7251 21.4733 12.4389L23.9466 9.96651C24.2328 9.68049 24.697 9.68058 24.9833 9.96688C25.2696 10.253 25.2695 10.7172 24.9833 11.0033L22.5089 13.4754C22.3665 13.6186 22.1794 13.6901 21.9912 13.6899Z" fill="#A51C20"/>
<path fill-rule="evenodd" clip-rule="evenodd" d="M26.4286 15.4716C26.2403 15.4716 26.0532 15.4002 25.9107 15.2571C25.6245 14.9709 25.6245 14.5069 25.9107 14.2208L28.7797 11.3512C29.0659 11.065 29.5302 11.0651 29.8151 11.3514C30.1014 11.6375 30.1014 12.1016 29.8151 12.3877L26.9464 15.2569C26.8038 15.4 26.6155 15.4717 26.4286 15.4716Z" fill="#A51C20"/>
<path fill-rule="evenodd" clip-rule="evenodd" d="M30.936 17.185C30.7491 17.185 30.562 17.1136 30.4182 16.9705C30.1321 16.684 30.1319 16.2202 30.4182 15.934L33.6141 12.7388C33.8991 12.4525 34.3633 12.4527 34.6495 12.7389C34.9358 13.0251 34.9358 13.4891 34.6495 13.7753L31.4551 16.9703C31.3114 17.1134 31.1243 17.1851 30.936 17.185Z" fill="#A51C20"/>
<path fill-rule="evenodd" clip-rule="evenodd" d="M52.7621 60.0814C52.6833 60.0814 52.603 60.0763 52.5229 60.0656C51.9671 59.9917 51.4873 59.6707 51.2074 59.1843L37.7386 35.6816C37.5364 35.3306 37.6584 34.8829 38.0096 34.6816C38.3608 34.4802 38.8085 34.6018 39.0095 34.9529L52.4785 58.4545C52.5472 58.5739 52.6565 58.6049 52.715 58.6128C52.7749 58.62 52.8868 58.6191 52.9847 58.522L56.2671 55.2396C56.7404 54.7644 56.9196 54.0692 56.7352 53.4253L48.4965 24.6919C48.3845 24.3029 48.6096 23.8972 48.9989 23.7856C49.3883 23.6743 49.794 23.899 49.9047 24.2881L58.1436 53.0208C58.4756 54.1755 58.1537 55.4229 57.3039 56.2753L54.0203 59.5581C53.682 59.897 53.2328 60.0815 52.7621 60.0814Z" fill="#A51C20"/>
<path fill-rule="evenodd" clip-rule="evenodd" d="M56.4602 50.5424C56.2733 50.5424 56.0849 50.4709 55.9424 50.3277C55.6562 50.0414 55.6561 49.5775 55.9424 49.2914L60.413 44.8206C60.4435 44.79 60.4435 44.7435 60.413 44.7127L58.4067 42.7072C58.3762 42.6763 58.3291 42.6764 58.2986 42.7072L55.5749 45.431C55.2886 45.7172 54.8254 45.7173 54.5392 45.4311C54.253 45.145 54.2529 44.6809 54.5392 44.3947L57.263 41.6707C57.8636 41.0695 58.8418 41.0696 59.4435 41.6708L61.4485 43.6762C62.0504 44.2776 62.0503 45.2559 61.4485 45.8572L56.9781 50.3276C56.8355 50.4708 56.6472 50.5424 56.4602 50.5424Z" fill="#A51C20"/>
<path fill-rule="evenodd" clip-rule="evenodd" d="M51.042 42.7413C50.8538 42.7413 50.6667 42.6701 50.5242 42.527C50.2381 42.2407 50.2379 41.7768 50.5229 41.4906L52.9962 39.0168C53.2824 38.7306 53.7454 38.7303 54.0317 39.0165C54.3179 39.3025 54.3179 39.7667 54.0317 40.0529L51.5598 42.5266C51.4174 42.6697 51.229 42.7415 51.042 42.7413Z" fill="#A51C20"/>
<path fill-rule="evenodd" clip-rule="evenodd" d="M49.2598 38.3044C49.0727 38.3044 48.8857 38.2329 48.742 38.0898C48.4557 37.8035 48.4557 37.3397 48.742 37.0535L51.6109 34.184C51.8972 33.8978 52.3614 33.8978 52.6477 34.1841C52.9339 34.47 52.9339 34.9343 52.6477 35.2205L49.7789 38.0897C49.6351 38.2328 49.4481 38.3044 49.2598 38.3044Z" fill="#A51C20"/>
<path fill-rule="evenodd" clip-rule="evenodd" d="M47.5474 33.7961C47.3591 33.7961 47.172 33.7245 47.0296 33.5814C46.7434 33.2951 46.7433 32.8314 47.0296 32.5451L50.2241 29.35C50.5104 29.0637 50.9747 29.0637 51.2609 29.35C51.5472 29.6359 51.5471 30.1001 51.2609 30.3862L48.0651 33.5814C47.9227 33.7245 47.7343 33.7961 47.5474 33.7961Z" fill="#A51C20"/>
</svg>
