<svg width="40" height="40" viewBox="0 0 40 40" fill="none" xmlns="http://www.w3.org/2000/svg">
<path d="M12.5792 35.8355C27.6736 35.8355 35.9296 23.3299 35.9296 12.4851C35.9296 12.1299 35.9296 11.7763 35.9056 11.4243C37.5117 10.2625 38.8982 8.82406 40 7.17626C38.5023 7.84026 36.9134 8.27551 35.2864 8.46745C36.9997 7.44194 38.2819 5.82876 38.8944 3.92825C37.2835 4.88427 35.5211 5.55797 33.6832 5.92026C32.4459 4.60455 30.8094 3.73332 29.027 3.4414C27.2446 3.14947 25.4157 3.45311 23.8233 4.30534C22.2309 5.15757 20.9637 6.51088 20.2179 8.15584C19.4721 9.80079 19.2892 11.6457 19.6976 13.4051C16.4348 13.2414 13.2429 12.3934 10.3291 10.9163C7.41525 9.43909 4.84461 7.36569 2.784 4.83065C1.73455 6.63731 1.41312 8.77603 1.88517 10.8114C2.35721 12.8467 3.58724 14.6256 5.3248 15.7859C4.01872 15.7476 2.74108 15.3952 1.6 14.7587V14.8627C1.60052 16.7574 2.25642 18.5936 3.45645 20.0599C4.65648 21.5262 6.32677 22.5323 8.184 22.9075C6.9758 23.237 5.70812 23.2852 4.4784 23.0483C5.00302 24.6788 6.02405 26.1047 7.39873 27.1265C8.77342 28.1483 10.433 28.7151 12.1456 28.7475C10.4441 30.0849 8.49552 31.0738 6.41146 31.6575C4.32739 32.2411 2.14869 32.4082 0 32.1491C3.75306 34.5574 8.11987 35.8349 12.5792 35.8291" fill="white"/>
</svg>
